<svg width="600" height="600" viewBox="0 0 600 600" fill="none" xmlns="http://www.w3.org/2000/svg">
<path d="M497.959 309.885C498.606 309.205 499.771 309.689 499.722 310.627C494.198 416.144 406.892 500 300 500C256.404 500 216.067 486.049 183.207 462.371C182.496 461.859 182.752 460.75 183.612 460.585C203.952 456.695 219.909 451.579 227.512 448.617C227.773 448.515 228.058 448.529 228.311 448.651C249.995 459.127 274.316 465 300 465C378.221 465 443.728 410.569 460.714 337.518C460.776 337.252 460.946 337.019 461.181 336.879C469.978 331.645 475.253 327.98 483.574 322.032L483.584 322.025L483.594 322.018C490.764 316.371 494.02 314.018 497.959 309.885ZM300 100C395.089 100 474.679 166.361 494.985 255.297C495.068 255.661 494.94 256.042 494.655 256.282L465.476 280.902C464.863 281.419 463.92 281.036 463.825 280.24C454.061 198.429 384.44 135 300 135C208.873 135 135 208.873 135 300C135 313.703 136.663 326.97 139.781 339.629C147.03 369.054 162.181 395.365 182.849 416.195C183.402 416.753 183.134 417.706 182.369 417.884C167.277 421.402 153.899 423.743 144.588 425.116C144.237 425.167 143.889 425.029 143.668 424.752C125.923 402.544 112.811 376.472 105.797 348C102.009 332.623 100 316.546 100 300C100 189.543 189.543 100 300 100Z" fill="url(#paint0_linear_135_811)"/>
<g filter="url(#filter0_d_135_811)">
<path d="M508.529 299.342C509.1 298.841 510 299.24 510 300L509.996 301.358C509.265 416.713 415.527 510 300 510L297.691 509.987C249.657 509.47 205.492 492.823 170.353 465.21C169.678 464.679 169.952 463.605 170.797 463.455L174.793 462.742C175.07 462.693 175.354 462.763 175.578 462.934C210.082 489.321 253.211 505 300 505C412.272 505 503.464 414.746 504.98 302.833C504.984 302.539 505.116 302.259 505.342 302.071C506.446 301.15 507.532 300.216 508.529 299.342ZM301.358 90.0039C398.656 90.6202 480.253 157.407 503.415 247.625C503.494 247.934 503.421 248.265 503.214 248.509C502.401 249.47 501.554 250.403 500.738 251.265C500.198 251.835 499.247 251.566 499.059 250.804C477.024 161.346 396.26 95 300 95C186.782 95 95 186.782 95 300C95 316.967 97.0607 333.447 100.942 349.204C107.763 376.894 120.214 402.367 137.007 424.345C137.473 424.956 137.111 425.845 136.349 425.942C135.128 426.098 133.923 426.236 132.857 426.351C132.509 426.388 132.167 426.239 131.956 425.959C115.726 404.341 103.569 379.489 96.627 352.543L96.0869 350.4C92.2339 334.759 90.1333 318.428 90.0059 301.627L90 300C90 184.02 184.02 90 300 90L301.358 90.0039Z" fill="white"/>
</g>
<g filter="url(#filter1_d_135_811)">
<path d="M481.77 187.708C516.048 186.995 539.886 194.514 547.591 211.037L547.817 211.537C566.689 254.254 472.244 339.958 336.179 403.406C199.58 467.103 72.7623 484.249 52.9229 441.704C43.4707 421.433 60.0065 391.27 94.6855 358.354L96.3916 363.642C81.0121 378.464 69.6189 392.498 62.7656 405.05C54.8594 419.532 53.4828 431.073 57.4541 439.59C61.4256 448.107 71.1523 454.472 87.3281 457.724C103.382 460.952 124.748 460.868 150.096 457.441C200.73 450.595 266.093 430.57 334.065 398.875C402.038 367.178 459.393 329.979 497.185 295.591C516.103 278.376 529.901 262.062 537.748 247.69C545.654 233.208 547.031 221.666 543.06 213.149C539.088 204.632 529.361 198.268 513.186 195.016C505.066 193.384 495.589 192.599 484.924 192.665L481.77 187.708Z" fill="white"/>
</g>
<path d="M444.775 350.273C445.568 349.74 446.582 350.513 446.265 351.415C425.058 411.748 367.581 455 300 455C281.649 455 264.044 451.811 247.707 445.957C246.814 445.637 246.847 444.377 247.75 444.088C249.352 443.576 250.948 443.06 252.54 442.54C252.743 442.473 252.962 442.474 253.165 442.54C267.902 447.38 283.645 450 300 450C363.968 450 418.582 409.958 440.149 353.573C440.224 353.376 440.359 353.207 440.536 353.092C441.995 352.132 443.408 351.192 444.775 350.273ZM300 145C381.599 145 448.468 208.055 454.546 288.097C454.572 288.436 454.423 288.766 454.152 288.97C453.203 289.683 452.25 290.393 451.293 291.101C450.654 291.575 449.744 291.137 449.693 290.343C444.715 212 379.598 150 300 150C217.157 150 150 217.157 150 300C150 344.064 169 383.689 199.254 411.132C199.831 411.656 199.624 412.614 198.878 412.842C197.746 413.188 196.634 413.524 195.544 413.85C195.206 413.952 194.84 413.867 194.581 413.627C164.085 385.321 145 344.89 145 300C145 214.396 214.396 145 300 145Z" fill="white"/>
<path d="M188.068 350.799C184.553 350.799 181.996 349.985 180.398 348.356C178.88 346.646 178.12 344.162 178.12 340.905C178.12 338.625 178.6 336.589 179.559 334.798C180.597 333.007 181.916 331.256 183.514 329.546L204.488 307.193C207.604 303.773 209.802 300.842 211.08 298.399C212.438 295.956 213.117 293.513 213.117 291.07C213.117 287.976 212.119 285.655 210.121 284.108C208.124 282.561 205.247 281.787 201.492 281.787C199.574 281.787 197.537 282.072 195.379 282.642C193.222 283.131 190.905 284.027 188.428 285.33C186.27 286.307 184.313 286.592 182.555 286.185C180.877 285.777 179.439 284.882 178.24 283.497C177.122 282.113 176.403 280.525 176.083 278.734C175.843 276.942 176.123 275.192 176.922 273.482C177.721 271.69 179.159 270.224 181.237 269.084C184.912 267.049 188.707 265.583 192.623 264.687C196.618 263.791 200.613 263.344 204.608 263.344C211.16 263.344 216.633 264.321 221.028 266.275C225.502 268.229 228.898 271.079 231.215 274.825C233.532 278.489 234.691 283.05 234.691 288.505C234.691 291.925 234.172 295.264 233.133 298.521C232.174 301.778 230.576 305.036 228.339 308.293C226.181 311.55 223.265 315.011 219.59 318.675L200.173 338.218V332.599H229.777C232.733 332.599 234.971 333.373 236.489 334.92C238.087 336.467 238.886 338.707 238.886 341.638C238.886 344.57 238.087 346.85 236.489 348.478C234.971 350.025 232.733 350.799 229.777 350.799H188.068Z" fill="white"/>
<path d="M362.574 349.455C359.058 349.455 358.02 349.577 356.103 347.623C354.185 345.587 353.226 342.778 353.226 339.195V274.703C353.226 271.039 354.185 268.229 356.103 266.275C358.1 264.321 360.857 263.344 364.373 263.344H393.856C403.445 263.344 410.836 265.746 416.029 270.55C421.303 275.273 423.939 281.869 423.939 290.337C423.939 295.793 422.741 300.557 420.344 304.628C418.027 308.618 414.631 311.713 410.156 313.911C405.762 316.029 400.328 317.087 393.856 317.087L394.815 314.888H400.568C404.004 314.888 407.04 315.744 409.677 317.454C412.314 319.082 413.251 322.115 415.009 325.535L420.344 336.732C421.622 339.093 424.078 343.104 423.998 345.384C423.918 347.582 422.999 347.969 421.002 348.946C419.004 349.924 416.128 352 413.012 352C409.895 352 408.517 350.758 406.52 349.455C404.602 348.152 403.045 345.262 401.527 342.493L390.62 322.095C389.662 320.304 388.423 319.082 386.905 318.431C385.467 317.698 383.789 317.331 381.871 317.331H375.279V340.803C375.279 344.386 372.561 345.384 370.064 346.911C367.567 348.437 366.249 349.455 362.574 349.455ZM375.279 301.453H389.901C394.136 301.453 397.372 300.598 399.609 298.888C401.847 297.178 402.965 294.531 402.965 290.948C402.965 287.528 401.847 284.963 399.609 283.253C397.372 281.462 394.136 280.566 389.901 280.566H375.279V301.453Z" fill="white"/>
<path d="M257.44 352.46C253.36 352.46 250.48 351.32 248.8 349.04C247.12 346.64 246.88 343.4 248.08 339.32C250.72 330.08 252.76 320.6 254.2 310.88C255.76 301.04 256.6 290.72 256.72 279.92H247.36C244.48 279.92 242.2 279.2 240.52 277.76C238.84 276.2 238 274.1 238 271.46C238 268.7 238.78 266.6 240.34 265.16C242.02 263.72 244.48 263 247.72 263H335.02C338.26 263 340.66 263.72 342.22 265.16C343.9 266.6 344.74 268.7 344.74 271.46C344.74 274.1 343.9 276.2 342.22 277.76C340.54 279.2 338.26 279.92 335.38 279.92H323.68V314.66C323.68 321.14 324.94 326 327.46 329.24C330.1 332.36 334.18 333.92 339.7 333.92C340.66 333.92 341.56 333.86 342.4 333.74C343.36 333.62 344.08 333.56 344.56 333.56C346 333.56 345.88 332.96 346.72 333.92C347.68 334.76 347.735 337.929 345.72 340.52C342.22 345.02 341.22 346.14 338.22 348.14C335.7 349.82 330.78 350.3 326.22 350.3C318.22 349.04 321.22 350.3 315.58 348.14C310.66 345.14 307 340.94 304.6 335.54C302.32 330.02 301.18 323.54 301.18 316.1V279.92H279.04C278.92 292.76 278.14 304.4 276.7 314.84C275.26 325.16 273.16 334.64 270.4 343.28C269.44 346.52 267.88 348.86 265.72 350.3C263.68 351.74 260.92 352.46 257.44 352.46Z" fill="white"/>
<g filter="url(#filter2_d_135_811)">
<path d="M397.408 340.001C375.001 352.926 350.3 365.797 323.994 378.063C203.379 434.307 94.7216 456.57 81.3008 427.789C76.399 417.277 84.8793 401.41 103.497 382.762C104.499 384.92 105.247 386.505 105.762 387.584C100.626 392.827 96.3753 397.79 93.0713 402.41C85.047 413.631 83.734 421.176 85.832 425.676C87.9303 430.175 94.5542 434.019 108.308 435.085C121.598 436.115 139.689 434.37 161.446 429.912C204.881 421.013 261.82 401.539 321.881 373.532C348.003 361.351 372.508 348.583 394.721 335.778L397.408 340.001ZM494.32 212.103C506.694 213.489 514.965 217.42 518.086 224.112C527.656 244.636 486.212 285.574 417.906 327.771L415.531 323.36C435.689 310.897 453.454 298.565 468.196 286.872C485.596 273.071 498.561 260.334 506.315 249.491C514.34 238.271 515.653 230.725 513.555 226.226C511.777 222.414 506.753 219.075 496.899 217.494L494.32 212.103Z" fill="white"/>
</g>
<defs>
<filter id="filter0_d_135_811" x="86" y="90" width="428" height="428" filterUnits="userSpaceOnUse" color-interpolation-filters="sRGB">
<feFlood flood-opacity="0" result="BackgroundImageFix"/>
<feColorMatrix in="SourceAlpha" type="matrix" values="0 0 0 0 0 0 0 0 0 0 0 0 0 0 0 0 0 0 127 0" result="hardAlpha"/>
<feOffset dy="4"/>
<feGaussianBlur stdDeviation="2"/>
<feComposite in2="hardAlpha" operator="out"/>
<feColorMatrix type="matrix" values="0 0 0 0 1 0 0 0 0 1 0 0 0 0 1 0 0 0 0.43 0"/>
<feBlend mode="normal" in2="BackgroundImageFix" result="effect1_dropShadow_135_811"/>
<feBlend mode="normal" in="SourceGraphic" in2="effect1_dropShadow_135_811" result="shape"/>
</filter>
<filter id="filter1_d_135_811" x="46.2949" y="187.661" width="507.923" height="285.418" filterUnits="userSpaceOnUse" color-interpolation-filters="sRGB">
<feFlood flood-opacity="0" result="BackgroundImageFix"/>
<feColorMatrix in="SourceAlpha" type="matrix" values="0 0 0 0 0 0 0 0 0 0 0 0 0 0 0 0 0 0 127 0" result="hardAlpha"/>
<feOffset dy="4"/>
<feGaussianBlur stdDeviation="2"/>
<feComposite in2="hardAlpha" operator="out"/>
<feColorMatrix type="matrix" values="0 0 0 0 1 0 0 0 0 1 0 0 0 0 1 0 0 0 0.46 0"/>
<feBlend mode="normal" in2="BackgroundImageFix" result="effect1_dropShadow_135_811"/>
<feBlend mode="normal" in="SourceGraphic" in2="effect1_dropShadow_135_811" result="shape"/>
</filter>
<filter id="filter2_d_135_811" x="75.9336" y="212.103" width="447.52" height="236.27" filterUnits="userSpaceOnUse" color-interpolation-filters="sRGB">
<feFlood flood-opacity="0" result="BackgroundImageFix"/>
<feColorMatrix in="SourceAlpha" type="matrix" values="0 0 0 0 0 0 0 0 0 0 0 0 0 0 0 0 0 0 127 0" result="hardAlpha"/>
<feOffset dy="4"/>
<feGaussianBlur stdDeviation="2"/>
<feComposite in2="hardAlpha" operator="out"/>
<feColorMatrix type="matrix" values="0 0 0 0 1 0 0 0 0 1 0 0 0 0 1 0 0 0 0.25 0"/>
<feBlend mode="normal" in2="BackgroundImageFix" result="effect1_dropShadow_135_811"/>
<feBlend mode="normal" in="SourceGraphic" in2="effect1_dropShadow_135_811" result="shape"/>
</filter>
<linearGradient id="paint0_linear_135_811" x1="182.5" y1="33" x2="403.5" y2="492" gradientUnits="userSpaceOnUse">
<stop stop-color="#6A5ACD"/>
<stop offset="1" stop-color="#35124A"/>
</linearGradient>
</defs>
</svg>
