<svg width="77" height="82" viewBox="0 0 77 82" fill="none" xmlns="http://www.w3.org/2000/svg">
<path d="M56.6023 33.3909L37.4638 17.8758C36.8086 17.3446 35.8754 17.2887 35.1598 17.7351C2.05975 38.3836 -0.597049 66.0475 2.44851 78.6756C2.64306 79.4823 3.36063 80.0483 4.18977 80.081C32.3184 81.1887 50.8493 51.8591 57.208 35.6217C57.5198 34.8255 57.2665 33.9294 56.6023 33.3909Z" stroke="#FFFEFE" stroke-width="3"/>
<path d="M73.7114 38.0932C70.4907 37.8626 65.1644 37.4499 61.8087 37.1865C60.8418 37.1106 59.9667 37.739 59.6527 38.6565C58.0574 43.3175 54.6881 48.9121 51.7355 53.2377C50.6348 54.8501 52.1484 56.9273 53.9313 56.1321C67.7824 49.9549 77.9215 38.3946 73.7114 38.0932Z" stroke="#FFFEFE" stroke-width="3"/>
<path d="M29.8095 1.51164C30.0955 1.79098 31.7323 8.75344 32.7847 13.3811C33.0017 14.3353 32.4895 15.2953 31.618 15.7405C27.5488 17.8191 23.4294 21.5285 20.1705 25.0065C18.7438 26.5292 16.0829 25.3044 16.6423 23.2941C20.883 8.05419 29.4614 1.17155 29.8095 1.51164Z" stroke="#FFFEFE" stroke-width="3"/>
<circle cx="21.2836" cy="57.0519" r="7.67305" transform="rotate(-0.668189 21.2836 57.0519)" stroke="#FFFEFE" stroke-width="3"/>
<rect x="41.7262" y="17.4147" width="11.1672" height="0.797656" rx="0.398828" transform="rotate(-48.6682 41.7262 17.4147)" stroke="#FFFEFE" stroke-width="0.797656"/>
<rect x="56.2226" y="29.2113" width="11.1672" height="0.797656" rx="0.398828" transform="rotate(-48.6682 56.2226 29.2113)" stroke="#FFFEFE" stroke-width="0.797656"/>
<rect x="51.39" y="25.2338" width="7.2977" height="0.797656" rx="0.398828" transform="rotate(-48.6682 51.39 25.2338)" stroke="#FFFEFE" stroke-width="0.797656"/>
<rect x="45.7551" y="20.8736" width="7.2977" height="0.797656" rx="0.398828" transform="rotate(-48.6682 45.7551 20.8736)" stroke="#FFFEFE" stroke-width="0.797656"/>
</svg>
