<svg width="34" height="34" viewBox="0 0 34 34" fill="none" xmlns="http://www.w3.org/2000/svg">
<g clip-path="url(#clip0_95_5)">
<g clip-path="url(#clip1_95_5)">
<path d="M17 34C26.4209 34 34 26.4209 34 17C34 7.57911 26.4209 0 17 0C7.57911 0 0 7.57911 0 17C0 26.4209 7.57911 34 17 34Z" fill="#2775CA"/>
<path d="M21.6752 19.6916C21.6752 17.2125 20.1877 16.3625 17.2127 16.0084C15.0877 15.725 14.6627 15.1584 14.6627 14.1666C14.6627 13.1748 15.3711 12.5375 16.7877 12.5375C18.0627 12.5375 18.7711 12.9625 19.1252 14.025C19.1961 14.2375 19.4086 14.3791 19.6211 14.3791H20.7543C21.0377 14.3791 21.2502 14.1666 21.2502 13.8834V13.8125C20.9668 12.2541 19.6918 11.05 18.0627 10.9084V9.20838C18.0627 8.92499 17.8502 8.71249 17.4961 8.6416H16.4336C16.1502 8.6416 15.9377 8.8541 15.8668 9.20838V10.8375C13.7418 11.1209 12.3961 12.5375 12.3961 14.3084C12.3961 16.6459 13.8127 17.5666 16.7877 17.9209C18.7711 18.275 19.4086 18.7 19.4086 19.8334C19.4086 20.9668 18.4168 21.7459 17.0711 21.7459C15.2293 21.7459 14.5918 20.9666 14.3793 19.9041C14.3086 19.6209 14.0961 19.4791 13.8836 19.4791H12.6793C12.3961 19.4791 12.1836 19.6916 12.1836 19.975V20.0459C12.4668 21.8166 13.6002 23.0916 15.9377 23.4459V25.1459C15.9377 25.4291 16.1502 25.6416 16.5043 25.7125H17.5668C17.8502 25.7125 18.0627 25.5 18.1336 25.1459V23.4459C20.2586 23.0916 21.6752 21.6041 21.6752 19.6916Z" fill="white"/>
<path d="M13.3874 27.1291C7.86242 25.1459 5.02903 18.9834 7.08331 13.5291C8.14581 10.5541 10.4833 8.28751 13.3874 7.22501C13.6708 7.0834 13.8124 6.8709 13.8124 6.51662V5.52501C13.8124 5.24162 13.6708 5.02912 13.3874 4.9584C13.3165 4.9584 13.1749 4.9584 13.104 5.02912C6.37492 7.15412 2.69153 14.3084 4.81653 21.0375C6.09153 25.0041 9.13742 28.05 13.104 29.325C13.3874 29.4666 13.6708 29.325 13.7415 29.0416C13.8124 28.9709 13.8124 28.9 13.8124 28.7584V27.7666C13.8124 27.5541 13.5999 27.2709 13.3874 27.1291ZM20.8958 5.02912C20.6124 4.88751 20.329 5.02912 20.2583 5.31251C20.1874 5.3834 20.1874 5.45412 20.1874 5.5959V6.58751C20.1874 6.8709 20.3999 7.15412 20.6124 7.2959C26.1374 9.27912 28.9708 15.4416 26.9165 20.8959C25.854 23.8709 23.5165 26.1375 20.6124 27.2C20.329 27.3416 20.1874 27.5541 20.1874 27.9084V28.9C20.1874 29.1834 20.329 29.3959 20.6124 29.4666C20.6833 29.4666 20.8249 29.4666 20.8958 29.3959C27.6249 27.2709 31.3083 20.1166 29.1833 13.3875C27.9083 9.35001 24.7915 6.30412 20.8958 5.02912Z" fill="white"/>
</g>
</g>
<defs>
<clipPath id="clip0_95_5">
<rect width="34" height="34" fill="white"/>
</clipPath>
<clipPath id="clip1_95_5">
<rect width="34" height="34" fill="white"/>
</clipPath>
</defs>
</svg>
