<svg width="22" height="22" viewBox="0 0 22 22" fill="none" xmlns="http://www.w3.org/2000/svg">
<g clip-path="url(#clip0_95_6)">
<g clip-path="url(#clip1_95_6)">
<path d="M11 0C4.92514 0 0 4.92514 0 11C0 17.0749 4.92536 22 11 22C17.0746 22 22 17.0762 22 11C22 4.92382 17.0755 0 11 0Z" fill="#53AE94"/>
<path d="M9.64226 9.53434V7.89798H5.90028V5.40472H16.0898V7.89798H12.3474V9.53302C15.3889 9.67272 17.6758 10.2751 17.6758 10.9967C17.6758 11.7183 15.3878 12.3206 12.3474 12.4612V17.7027H9.64138V12.4608C6.60538 12.3206 4.3231 11.7187 4.3231 10.9978C4.3231 10.2768 6.60538 9.67492 9.64138 9.53478M9.64138 12.0168V12.0155C9.71772 12.0203 10.11 12.0439 10.9834 12.0439C11.6817 12.0439 12.1729 12.0241 12.3461 12.0151V12.0173C15.0331 11.8982 17.0389 11.4303 17.0389 10.8704C17.0389 10.3105 15.0329 9.84322 12.3461 9.72398V11.5511C12.1701 11.5632 11.6667 11.5929 10.9719 11.5929C10.1375 11.5929 9.71794 11.5581 9.64094 11.5511V9.72398C6.95914 9.84344 4.95802 10.3118 4.95802 10.8697C4.95802 11.4277 6.96002 11.8963 9.64094 12.0157" fill="white"/>
</g>
</g>
<defs>
<clipPath id="clip0_95_6">
<rect width="22" height="22" fill="white"/>
</clipPath>
<clipPath id="clip1_95_6">
<rect width="22" height="22" fill="white" transform="matrix(-1 0 0 1 22 0)"/>
</clipPath>
</defs>
</svg>
