<svg width="34" height="34" viewBox="0 0 34 34" fill="none" xmlns="http://www.w3.org/2000/svg">
<g clip-path="url(#clip0_95_3)">
<g clip-path="url(#clip1_95_3)">
<path d="M17 0C7.61158 0 0 7.61158 0 17C0 26.3884 7.61192 34 17 34C26.3881 34 34 26.3905 34 17C34 7.60954 26.3894 0 17 0Z" fill="#53AE94"/>
<path d="M14.9019 14.7349V12.206H9.11888V8.35278H24.8663V12.206H19.0826V14.7329C23.7831 14.9488 27.3174 15.8797 27.3174 16.9949C27.3174 18.1101 23.7814 19.041 19.0826 19.2583V27.3588H14.9006V19.2576C10.2086 19.041 6.68142 18.1108 6.68142 16.9966C6.68142 15.8824 10.2086 14.9522 14.9006 14.7356M14.9006 18.5715V18.5694C15.0186 18.5769 15.6248 18.6133 16.9746 18.6133C18.0537 18.6133 18.813 18.5827 19.0805 18.5688V18.5722C23.2333 18.3882 26.3331 17.665 26.3331 16.7997C26.3331 15.9344 23.233 15.2123 19.0805 15.028V17.8517C18.8085 17.8704 18.0306 17.9163 16.9569 17.9163C15.6673 17.9163 15.0189 17.8626 14.8999 17.8517V15.028C10.7553 15.2126 7.66266 15.9365 7.66266 16.7987C7.66266 17.661 10.7567 18.3852 14.8999 18.5698" fill="white"/>
</g>
</g>
<defs>
<clipPath id="clip0_95_3">
<rect width="34" height="34" fill="white"/>
</clipPath>
<clipPath id="clip1_95_3">
<rect width="34" height="34" fill="white" transform="matrix(-1 0 0 1 34 0)"/>
</clipPath>
</defs>
</svg>
