<svg width="22" height="23" viewBox="0 0 22 23" fill="none" xmlns="http://www.w3.org/2000/svg">
<g clip-path="url(#clip0_95_2)">
<g clip-path="url(#clip1_95_2)">
<path d="M11 0.5C4.92514 0.5 0 5.42514 0 11.5C0 17.5749 4.92536 22.5 11 22.5C17.0746 22.5 22 17.5762 22 11.5C22 5.42382 17.0755 0.5 11 0.5Z" fill="#53AE94"/>
<path d="M9.64226 10.0343V8.39798H5.90028V5.90472H16.0898V8.39798H12.3474V10.033C15.3889 10.1727 17.6758 10.7751 17.6758 11.4967C17.6758 12.2183 15.3878 12.8206 12.3474 12.9612V18.2027H9.64138V12.9608C6.60538 12.8206 4.3231 12.2187 4.3231 11.4978C4.3231 10.7768 6.60538 10.1749 9.64138 10.0348M9.64138 12.5168V12.5155C9.71772 12.5203 10.11 12.5439 10.9834 12.5439C11.6817 12.5439 12.1729 12.5241 12.3461 12.5151V12.5173C15.0331 12.3982 17.0389 11.9303 17.0389 11.3704C17.0389 10.8105 15.0329 10.3432 12.3461 10.224V12.0511C12.1701 12.0632 11.6667 12.0929 10.9719 12.0929C10.1375 12.0929 9.71794 12.0581 9.64094 12.0511V10.224C6.95914 10.3434 4.95802 10.8118 4.95802 11.3697C4.95802 11.9277 6.96002 12.3963 9.64094 12.5157" fill="white"/>
</g>
</g>
<defs>
<clipPath id="clip0_95_2">
<rect width="22" height="22" fill="white" transform="translate(0 0.5)"/>
</clipPath>
<clipPath id="clip1_95_2">
<rect width="22" height="22" fill="white" transform="matrix(-1 0 0 1 22 0.5)"/>
</clipPath>
</defs>
</svg>
