<svg width="23" height="22" viewBox="0 0 23 22" fill="none" xmlns="http://www.w3.org/2000/svg">
<g clip-path="url(#clip0_96_8)">
<g clip-path="url(#clip1_96_8)">
<path d="M11.3333 0C5.25839 0 0.333252 4.92514 0.333252 11C0.333252 17.0749 5.25861 22 11.3333 22C17.4079 22 22.3333 17.0762 22.3333 11C22.3333 4.92382 17.4088 0 11.3333 0Z" fill="#53AE94"/>
<path d="M9.97551 9.53434V7.89798H6.23353V5.40472H16.4231V7.89798H12.6806V9.53302C15.7221 9.67272 18.009 10.2751 18.009 10.9967C18.009 11.7183 15.721 12.3206 12.6806 12.4612V17.7027H9.97463V12.4608C6.93863 12.3206 4.65635 11.7187 4.65635 10.9978C4.65635 10.2768 6.93863 9.67492 9.97463 9.53478M9.97463 12.0168V12.0155C10.051 12.0203 10.4432 12.0439 11.3166 12.0439C12.0149 12.0439 12.5062 12.0241 12.6793 12.0151V12.0173C15.3664 11.8982 17.3721 11.4303 17.3721 10.8704C17.3721 10.3105 15.3662 9.84322 12.6793 9.72398V11.5511C12.5033 11.5632 12 11.5929 11.3052 11.5929C10.4707 11.5929 10.0512 11.5581 9.97419 11.5511V9.72398C7.29239 9.84344 5.29127 10.3118 5.29127 10.8697C5.29127 11.4277 7.29327 11.8963 9.97419 12.0157" fill="white"/>
</g>
</g>
<defs>
<clipPath id="clip0_96_8">
<rect width="22" height="22" fill="white" transform="translate(0.333252)"/>
</clipPath>
<clipPath id="clip1_96_8">
<rect width="22" height="22" fill="white" transform="matrix(-1 0 0 1 22.3333 0)"/>
</clipPath>
</defs>
</svg>
